<svg width="65" height="28" viewBox="0 0 65 28" fill="none" xmlns="http://www.w3.org/2000/svg">
<rect width="65" height="28" rx="14" fill="#78258D"/>
<path d="M27.67 20.252C26.098 20.252 24.862 19.658 23.962 18.47C23.074 17.27 22.63 15.68 22.63 13.7C22.63 11.72 23.074 10.136 23.962 8.948C24.862 7.748 26.098 7.148 27.67 7.148C29.254 7.148 30.49 7.748 31.378 8.948C32.266 10.136 32.71 11.72 32.71 13.7C32.71 15.68 32.266 17.27 31.378 18.47C30.49 19.658 29.254 20.252 27.67 20.252ZM25.762 16.778C26.194 17.474 26.83 17.822 27.67 17.822C28.51 17.822 29.146 17.468 29.578 16.76C30.022 16.052 30.244 15.032 30.244 13.7C30.244 12.356 30.022 11.33 29.578 10.622C29.146 9.914 28.51 9.56 27.67 9.56C26.83 9.56 26.194 9.914 25.762 10.622C25.33 11.33 25.114 12.356 25.114 13.7C25.114 15.044 25.33 16.07 25.762 16.778ZM33.6875 20V18.146L37.9895 13.718C38.9495 12.71 39.4295 11.87 39.4295 11.198C39.4295 10.706 39.2735 10.31 38.9615 10.01C38.6615 9.71 38.2715 9.56 37.7915 9.56C36.8435 9.56 36.1415 10.052 35.6855 11.036L33.5975 9.812C33.9935 8.948 34.5635 8.288 35.3075 7.832C36.0515 7.376 36.8675 7.148 37.7555 7.148C38.8955 7.148 39.8735 7.508 40.6895 8.228C41.5055 8.936 41.9135 9.896 41.9135 11.108C41.9135 12.416 41.2235 13.76 39.8435 15.14L37.3775 17.606H42.1115V20H33.6875Z" fill="white"/>
</svg>
