<svg width="63" height="28" viewBox="0 0 63 28" fill="none" xmlns="http://www.w3.org/2000/svg">
<rect width="63" height="28" rx="14" fill="#32CD32"/>
<path d="M27.67 20.252C26.098 20.252 24.862 19.658 23.962 18.47C23.074 17.27 22.63 15.68 22.63 13.7C22.63 11.72 23.074 10.136 23.962 8.948C24.862 7.748 26.098 7.148 27.67 7.148C29.254 7.148 30.49 7.748 31.378 8.948C32.266 10.136 32.71 11.72 32.71 13.7C32.71 15.68 32.266 17.27 31.378 18.47C30.49 19.658 29.254 20.252 27.67 20.252ZM25.762 16.778C26.194 17.474 26.83 17.822 27.67 17.822C28.51 17.822 29.146 17.468 29.578 16.76C30.022 16.052 30.244 15.032 30.244 13.7C30.244 12.356 30.022 11.33 29.578 10.622C29.146 9.914 28.51 9.56 27.67 9.56C26.83 9.56 26.194 9.914 25.762 10.622C25.33 11.33 25.114 12.356 25.114 13.7C25.114 15.044 25.33 16.07 25.762 16.778ZM36.6763 7.4H38.8363V20H36.3523V10.028L33.9763 10.694L33.3643 8.57L36.6763 7.4Z" fill="white"/>
</svg>
