<?xml version="1.0" standalone="no"?>
<!DOCTYPE svg PUBLIC "-//W3C//DTD SVG 20010904//EN"
 "http://www.w3.org/TR/2001/REC-SVG-20010904/DTD/svg10.dtd">
<svg version="1.0" xmlns="http://www.w3.org/2000/svg"
 width="3543.000000pt" height="3543.000000pt" viewBox="0 0 3543.000000 3543.000000"
 preserveAspectRatio="xMidYMid meet">

<g transform="translate(0.000000,3543.000000) scale(0.100000,-0.100000)"
fill="#000000" stroke="none">
<path d="M11300 20973 c-397 -38 -735 -129 -1055 -282 -224 -108 -371 -203
-583 -380 -131 -109 -198 -186 -250 -290 -33 -68 -37 -83 -37 -155 0 -98 23
-152 93 -221 62 -61 127 -97 253 -139 210 -70 437 -101 974 -131 55 -3 172 -9
260 -15 88 -5 210 -12 270 -15 61 -3 180 -10 265 -15 85 -5 205 -12 265 -15
323 -18 570 -39 773 -66 l82 -11 0 -463 0 -464 455 0 455 -1 0 105 0 105 -345
0 -345 0 0 335 c0 267 3 335 13 335 27 0 188 -51 279 -89 596 -248 806 -721
547 -1234 -209 -415 -635 -762 -1224 -998 -435 -173 -1157 -347 -1765 -423
-179 -23 -255 -31 -530 -53 -52 -4 -266 -8 -475 -8 -403 1 -633 15 -885 56
-350 56 -703 188 -1026 381 -131 78 -354 245 -354 264 0 8 7 26 16 40 23 35 7
66 -48 93 -95 46 -185 37 -209 -21 -31 -76 -4 -140 113 -264 293 -310 673
-532 1137 -664 346 -99 707 -142 1206 -143 655 -2 1458 80 1994 204 1116 259
1898 753 2201 1391 97 205 125 336 117 543 -6 166 -22 235 -86 370 -97 204
-261 361 -506 483 -129 64 -272 117 -407 151 l-108 26 0 393 0 392 -110 0
-110 0 0 -370 c0 -203 -3 -370 -7 -370 -5 0 -69 9 -143 20 -74 10 -220 26
-325 34 -164 14 -295 22 -800 51 -49 3 -268 14 -485 25 -608 31 -729 42 -915
85 -359 83 -482 197 -401 371 42 91 224 253 430 383 355 225 795 383 1241 447
143 20 479 24 570 6 68 -14 94 -35 104 -83 9 -45 49 -52 85 -16 53 53 42 131
-28 202 -80 79 -225 116 -454 113 -81 0 -163 -3 -182 -5z"/>
<path d="M25340 19295 l0 -986 103 3 102 3 3 983 2 982 -105 0 -105 0 0 -985z"/>
<path d="M26300 19295 l0 -985 100 0 100 0 0 985 0 985 -100 0 -100 0 0 -985z"/>
<path d="M22027 20069 c-36 -93 -404 -1086 -447 -1207 -13 -35 -26 -59 -30
-55 -7 7 -59 149 -233 633 -25 69 -83 231 -130 360 -46 129 -88 245 -91 258
-7 21 -12 22 -127 22 -75 0 -119 -4 -119 -10 0 -6 49 -142 109 -303 628 -1682
577 -1549 587 -1522 4 11 107 279 229 595 122 316 237 615 256 663 28 74 34
85 41 67 5 -12 46 -120 92 -239 46 -119 159 -412 251 -651 92 -239 170 -438
174 -442 5 -6 670 1753 687 1820 6 22 6 22 -114 22 l-119 0 -33 -92 c-32 -93
-276 -784 -373 -1056 l-50 -142 -154 407 c-85 225 -199 526 -253 671 -55 144
-103 270 -108 278 -7 12 -18 -7 -45 -77z"/>
<path d="M14642 20085 c-382 -83 -651 -388 -691 -784 -36 -347 105 -671 372
-853 238 -162 561 -203 832 -104 210 76 397 247 490 449 67 145 80 211 79 407
0 161 -3 182 -28 264 -99 325 -343 553 -662 621 -87 18 -307 18 -392 0z m375
-221 c123 -32 261 -122 336 -219 56 -72 115 -198 133 -285 24 -114 15 -291
-20 -395 -40 -117 -80 -180 -170 -270 -60 -60 -100 -90 -156 -117 -185 -90
-413 -91 -593 -4 -176 85 -309 256 -353 453 -25 114 -16 314 19 411 85 241
286 409 527 441 77 11 205 4 277 -15z"/>
<path d="M16995 20084 c-145 -31 -297 -111 -411 -218 -179 -166 -274 -396
-274 -667 0 -127 10 -201 42 -299 95 -297 309 -500 612 -582 114 -31 353 -31
469 0 286 78 502 311 581 627 17 70 38 244 30 257 -3 4 -189 8 -415 8 l-409 0
0 -100 0 -100 295 0 295 0 -6 -27 c-26 -112 -98 -235 -186 -318 -120 -114
-255 -160 -443 -153 -190 8 -334 74 -460 211 -118 127 -175 283 -175 480 0
325 191 583 490 663 88 23 270 23 365 -1 159 -40 257 -106 372 -253 l18 -22
75 69 75 68 -39 57 c-100 146 -282 258 -488 300 -98 20 -316 20 -413 0z"/>
<path d="M19325 20084 c-147 -32 -298 -112 -415 -221 -92 -86 -160 -185 -207
-299 -52 -127 -66 -209 -67 -369 0 -173 22 -273 95 -421 109 -222 292 -373
546 -451 79 -24 105 -26 243 -27 131 -1 168 3 238 22 326 88 556 325 639 658
27 109 25 354 -5 463 -90 332 -345 577 -672 646 -91 19 -301 18 -395 -1z m380
-221 c215 -53 399 -242 462 -473 24 -89 24 -299 -1 -390 -58 -213 -217 -385
-423 -457 -70 -25 -92 -28 -213 -28 -156 0 -229 18 -340 82 -79 47 -184 149
-229 226 -133 226 -132 524 3 751 104 174 277 281 501 310 49 6 176 -5 240
-21z"/>
<path d="M24030 19493 c-59 -10 -153 -47 -207 -82 -111 -72 -200 -200 -234
-341 -20 -80 -17 -289 5 -369 47 -172 170 -316 316 -372 189 -71 432 -41 594
75 68 49 169 161 163 180 -2 5 -38 31 -81 59 l-77 50 -17 -24 c-113 -163 -313
-227 -495 -159 -118 45 -179 130 -212 298 l-7 32 456 0 456 0 0 88 c-1 178
-49 311 -152 418 -69 72 -161 123 -256 143 -51 11 -199 13 -252 4z m258 -203
c74 -32 136 -104 162 -187 11 -36 20 -69 20 -74 0 -5 -147 -9 -340 -9 l-340 0
6 28 c20 86 83 182 148 221 88 55 245 64 344 21z"/>
<path d="M18706 17073 c-75 -170 -136 -312 -136 -316 0 -5 18 -7 40 -5 l41 3
37 85 38 85 119 3 120 2 36 -87 35 -88 42 -3 c23 -2 42 1 42 5 0 8 -267 613
-274 620 -1 2 -64 -135 -140 -304z m184 28 c22 -51 40 -94 40 -97 0 -2 -38 -4
-85 -4 -47 0 -85 2 -85 4 0 2 14 36 30 75 17 40 35 83 41 98 5 14 12 24 14 21
3 -3 23 -46 45 -97z"/>
<path d="M21004 17149 l-219 -232 -3 217 -2 216 -40 0 -40 0 0 -317 0 -318
142 150 c78 83 180 188 225 235 l83 85 0 -217 0 -218 40 0 40 0 0 315 c0 173
-2 315 -3 315 -2 0 -102 -104 -223 -231z"/>
<path d="M22537 17288 c-47 -51 -147 -156 -221 -233 l-135 -140 -1 218 0 217
-40 0 -40 0 0 -317 0 -318 158 165 c86 91 187 197 224 235 l68 70 0 -217 0
-218 40 0 40 0 0 315 c0 173 -2 315 -3 315 -2 0 -43 -42 -90 -92z"/>
<path d="M26293 17151 l-218 -229 -3 214 -2 214 -40 0 -40 0 0 -316 0 -316
112 118 c62 66 163 171 225 234 l113 115 0 -217 0 -218 40 0 40 0 0 315 c0
173 -2 315 -4 315 -3 0 -103 -103 -223 -229z"/>
<path d="M19464 17337 c-40 -20 -56 -34 -73 -69 -29 -61 -27 -68 18 -68 33 0
40 4 43 21 9 63 149 90 202 40 64 -60 7 -161 -90 -161 -21 0 -24 -5 -24 -35 0
-32 3 -35 38 -41 80 -14 122 -53 122 -112 0 -70 -89 -115 -183 -93 -45 11 -87
46 -87 73 0 14 -8 18 -41 18 l-42 0 6 -37 c17 -103 164 -160 304 -118 145 43
167 240 33 295 l-31 13 36 24 c91 62 85 184 -11 244 -56 34 -155 37 -220 6z"/>
<path d="M14170 17050 l0 -300 245 0 245 0 0 -50 c0 -49 1 -50 30 -50 l30 0 0
85 0 85 -35 0 -35 0 0 265 0 265 -40 0 -40 0 0 -265 0 -265 -160 0 -160 0 0
265 0 265 -40 0 -40 0 0 -300z"/>
<path d="M14990 17050 l0 -300 175 0 175 0 0 35 0 35 -135 0 -135 0 0 110 0
110 125 0 125 0 0 35 0 35 -125 0 -125 0 0 85 0 85 135 0 135 0 0 35 0 35
-175 0 -175 0 0 -300z"/>
<path d="M15630 17050 l0 -300 40 0 40 0 0 145 0 145 165 0 165 0 0 -145 0
-145 35 0 35 0 0 300 0 300 -35 0 -34 0 -3 -117 -3 -118 -162 -3 -163 -2 0
120 0 120 -40 0 -40 0 0 -300z"/>
<path d="M16360 17315 l0 -35 75 0 75 0 0 -265 0 -265 40 0 40 0 0 265 0 265
75 0 75 0 0 35 0 35 -190 0 -190 0 0 -35z"/>
<path d="M16980 17050 l0 -300 40 0 40 0 0 120 0 120 73 0 c85 0 140 22 180
69 34 40 41 67 35 135 -5 65 -29 98 -92 131 -45 22 -62 25 -163 25 l-113 0 0
-300z m254 207 c14 -10 30 -34 37 -56 10 -33 9 -45 -7 -78 -22 -45 -61 -62
-146 -62 l-58 -1 0 111 0 112 74 -5 c45 -3 85 -11 100 -21z"/>
<path d="M18050 17050 l0 -300 40 0 40 0 0 120 0 120 73 0 c87 0 143 23 180
72 48 63 48 162 0 219 -46 54 -93 69 -220 69 l-113 0 0 -300z m262 191 c30
-34 37 -81 17 -125 -15 -33 -75 -56 -144 -56 l-55 0 0 111 0 112 77 -5 c71 -5
79 -8 105 -37z"/>
<path d="M20050 17050 l0 -302 128 3 c119 4 131 6 169 31 100 66 98 227 -4
277 -39 19 -40 24 -7 41 80 43 66 184 -22 230 -19 10 -67 16 -146 18 l-118 4
0 -302z m235 205 c25 -24 32 -65 19 -100 -10 -26 -59 -45 -119 -45 l-55 0 0
85 0 85 65 0 c57 0 69 -3 90 -25z m11 -234 c42 -26 60 -78 44 -127 -18 -52
-59 -74 -142 -74 l-68 0 0 110 0 110 68 0 c48 0 76 -5 98 -19z"/>
<path d="M21470 17315 l0 -35 80 0 80 0 0 -265 0 -265 39 0 40 0 -2 265 -2
265 78 0 77 0 0 35 0 35 -195 0 -195 0 0 -35z"/>
<path d="M23038 17340 c-72 -22 -128 -96 -128 -170 0 -71 51 -143 119 -168 20
-7 16 -15 -64 -124 -47 -64 -85 -119 -85 -122 0 -3 20 -6 44 -6 l45 0 83 120
c77 111 85 119 116 120 l32 0 0 -120 0 -120 40 0 40 0 0 300 0 300 -107 -1
c-60 0 -120 -4 -135 -9z m162 -170 l0 -110 -71 0 c-67 0 -73 2 -105 34 -28 28
-34 42 -34 76 0 34 6 48 34 76 32 32 38 34 105 34 l71 0 0 -110z"/>
<path d="M24010 17050 l0 -300 40 0 40 0 0 120 0 120 73 0 c137 1 217 66 217
180 0 75 -35 129 -105 161 -31 15 -65 19 -152 19 l-113 0 0 -300z m260 195
c25 -24 30 -37 30 -75 0 -38 -5 -51 -30 -75 -25 -24 -39 -29 -105 -33 l-75 -5
0 113 0 113 75 -5 c66 -4 80 -9 105 -33z"/>
<path d="M24650 17050 l0 -300 175 0 175 0 0 35 0 35 -135 0 -135 0 0 110 0
110 125 0 125 0 0 35 0 35 -125 0 -125 0 0 85 0 85 135 0 135 0 0 35 0 35
-175 0 -175 0 0 -300z"/>
<path d="M25290 17253 c0 -115 11 -161 47 -204 39 -46 79 -59 183 -59 l90 0 0
-120 0 -120 35 0 35 0 0 300 0 300 -35 0 -35 0 0 -145 0 -145 -86 0 c-47 0
-94 5 -105 10 -36 20 -52 70 -57 178 l-5 102 -33 0 -34 0 0 -97z"/>
<path d="M23190 7189 c0 -5 5 -7 10 -4 6 3 10 8 10 11 0 2 -4 4 -10 4 -5 0
-10 -5 -10 -11z"/>
<path d="M3630 2685 c-7 -9 -11 -18 -8 -20 9 -10 38 7 38 21 0 18 -14 18 -30
-1z"/>
</g>
</svg>
