<?xml version="1.0" standalone="no"?>
<!DOCTYPE svg PUBLIC "-//W3C//DTD SVG 20010904//EN"
 "http://www.w3.org/TR/2001/REC-SVG-20010904/DTD/svg10.dtd">
<svg version="1.0" xmlns="http://www.w3.org/2000/svg"
 width="2273.000000pt" height="947.000000pt" viewBox="0 0 2273.000000 947.000000"
 preserveAspectRatio="xMidYMid meet">

<g transform="translate(0.000000,947.000000) scale(0.100000,-0.100000)"
fill="#000000" stroke="none">
<path d="M5655 7453 c-300 -36 -442 -62 -634 -118 -308 -90 -621 -245 -866
-429 -226 -169 -329 -275 -393 -405 -33 -66 -36 -82 -37 -155 0 -97 23 -152
91 -221 144 -144 431 -216 1004 -255 263 -17 635 -39 855 -50 534 -27 937 -56
1159 -86 61 -8 113 -14 118 -14 4 0 9 -208 10 -462 l3 -463 453 -3 452 -2 0
105 0 105 -345 0 -345 0 0 335 c0 236 3 335 11 335 6 0 36 -7 67 -16 522 -146
836 -448 868 -835 16 -189 -52 -408 -192 -619 -264 -397 -696 -699 -1309 -913
-332 -116 -846 -243 -1280 -316 -832 -140 -1788 -146 -2390 -15 -268 58 -651
220 -895 378 -140 92 -300 215 -300 232 0 8 7 26 16 40 24 36 6 70 -50 95 -95
41 -181 34 -205 -17 -17 -38 -13 -100 9 -144 29 -56 187 -219 310 -317 388
-314 794 -479 1405 -572 450 -69 1162 -58 1940 30 877 98 1624 331 2183 680
498 311 827 730 908 1156 20 109 14 334 -11 433 -20 77 -90 230 -135 295 -90
131 -277 279 -468 371 -104 49 -323 125 -419 145 l-63 13 0 393 0 393 -110 0
-110 0 0 -370 c0 -243 -3 -370 -10 -370 -6 0 -52 7 -103 15 -181 29 -579 59
-1169 90 -159 8 -417 22 -575 30 -621 32 -790 55 -1011 136 -205 75 -273 176
-208 314 75 163 482 451 856 607 398 166 753 241 1140 241 281 0 350 -20 350
-100 0 -30 3 -33 30 -33 36 0 76 35 86 75 11 43 -14 103 -60 150 -80 79 -224
115 -456 113 -80 0 -158 -3 -175 -5z"/>
<path d="M19690 5775 l0 -985 105 0 105 0 0 985 0 985 -105 0 -105 0 0 -985z"/>
<path d="M20650 6620 c0 -77 0 -405 0 -730 0 -324 0 -705 0 -845 l0 -255 100
0 100 0 0 985 0 985 -100 0 -100 0 0 -140z"/>
<path d="M16402 6619 c-97 -257 -435 -1173 -474 -1282 l-24 -69 -72 194 c-39
106 -105 288 -146 403 -41 116 -108 302 -149 415 -41 113 -80 222 -86 243
l-13 37 -119 0 c-84 0 -119 -3 -119 -12 0 -23 684 -1838 690 -1830 7 8 24 52
116 292 36 96 82 216 101 265 19 50 54 140 78 200 23 61 84 219 136 352 61
158 96 237 100 225 4 -9 37 -96 74 -192 37 -96 78 -202 91 -235 13 -33 40
-105 62 -160 21 -55 94 -244 161 -420 68 -176 126 -323 130 -327 5 -6 669
1751 687 1820 6 22 6 22 -114 22 l-120 0 -30 -87 c-17 -49 -68 -196 -115 -328
-47 -132 -113 -319 -147 -415 -34 -96 -82 -233 -108 -305 -25 -71 -49 -134
-52 -138 -4 -5 -39 76 -78 180 -39 103 -132 350 -207 548 -75 198 -157 416
-182 485 -25 69 -50 129 -54 134 -5 5 -12 -1 -17 -15z"/>
<path d="M9035 6573 c-260 -36 -520 -223 -638 -458 -176 -351 -120 -795 135
-1066 244 -261 644 -349 989 -220 199 75 383 248 474 443 57 125 76 207 82
364 7 186 -14 300 -88 459 -109 236 -369 432 -630 475 -61 9 -262 11 -324 3z
m245 -213 c257 -34 448 -196 540 -460 32 -91 39 -265 16 -380 -43 -211 -194
-400 -383 -481 -113 -48 -284 -62 -418 -34 -211 45 -401 220 -472 435 -26 79
-28 96 -28 245 0 149 2 165 28 235 100 272 327 437 617 448 14 1 59 -3 100 -8z"/>
<path d="M11372 6569 c-118 -20 -275 -89 -374 -165 -168 -129 -293 -342 -327
-554 -29 -177 -4 -406 59 -551 119 -274 336 -448 634 -510 185 -38 410 -13
563 65 273 137 448 428 465 771 l3 60 -412 3 -413 2 0 -100 0 -100 295 0 295
0 -6 -27 c-11 -49 -61 -162 -94 -213 -44 -69 -151 -164 -224 -200 -143 -70
-358 -79 -513 -22 -274 101 -433 342 -433 654 0 165 39 291 126 415 137 193
367 290 626 263 140 -14 244 -53 342 -128 48 -36 129 -126 138 -153 4 -10 27
6 73 46 97 86 96 82 43 152 -155 201 -388 304 -683 302 -71 -1 -154 -5 -183
-10z"/>
<path d="M13680 6565 c-167 -37 -309 -114 -430 -235 -101 -100 -150 -172 -197
-286 -52 -127 -66 -209 -67 -369 0 -174 23 -274 96 -423 148 -298 451 -482
793 -482 446 0 804 302 881 744 21 116 14 298 -16 408 -25 95 -76 208 -128
285 -43 63 -157 179 -214 218 -64 44 -202 108 -273 128 -93 26 -349 33 -445
12z m287 -205 c357 -46 597 -359 569 -743 -12 -174 -78 -319 -200 -441 -133
-135 -295 -194 -500 -183 -155 8 -260 47 -377 141 -190 150 -283 422 -235 679
28 149 84 259 178 356 112 113 226 170 382 190 85 12 101 12 183 1z"/>
<path d="M18335 5961 c-150 -37 -256 -117 -332 -250 -48 -85 -72 -174 -80
-296 -17 -297 128 -536 377 -621 68 -23 266 -26 350 -5 97 25 193 76 264 140
41 37 108 130 102 140 -3 5 -40 30 -83 57 l-76 48 -16 -25 c-90 -138 -245
-206 -410 -180 -84 13 -158 49 -202 98 -38 43 -74 117 -83 168 -4 22 -10 50
-13 63 l-5 22 457 0 458 0 -6 118 c-9 181 -53 295 -155 398 -60 60 -163 115
-250 133 -77 16 -216 12 -297 -8z m300 -190 c85 -38 140 -103 169 -201 9 -30
16 -57 16 -62 0 -4 -153 -8 -340 -8 l-340 0 6 28 c11 49 55 136 82 166 39 41
95 75 155 91 73 21 189 14 252 -14z"/>
<path d="M13147 3757 c-45 -99 -85 -191 -167 -379 -22 -51 -45 -101 -50 -110
-17 -30 -11 -38 29 -38 38 0 40 1 70 67 17 36 34 77 37 90 6 23 7 24 127 21
l120 -3 38 -85 38 -85 40 -3 c23 -2 41 1 41 5 0 8 -147 343 -207 473 -14 30
-32 73 -41 95 -8 22 -18 43 -22 47 -3 5 -27 -38 -53 -95z m89 -164 c54 -124
58 -113 -40 -113 -47 0 -86 1 -86 3 0 1 15 38 33 82 19 44 37 89 41 99 9 25
13 20 52 -71z"/>
<path d="M15439 3718 c-74 -78 -173 -183 -221 -233 l-87 -90 -1 218 0 217 -40
0 -40 0 0 -310 c0 -170 4 -310 9 -310 5 0 35 28 66 63 141 151 368 387 374
387 3 0 5 -97 3 -215 l-3 -215 41 0 40 0 0 315 c0 173 -2 315 -3 315 -2 0 -64
-64 -138 -142z"/>
<path d="M16887 3768 c-47 -51 -147 -156 -221 -233 l-135 -140 -1 218 0 217
-40 0 -40 0 0 -317 0 -318 83 85 c45 47 146 153 224 235 l143 150 0 -217 0
-218 40 0 40 0 0 315 c0 173 -2 315 -3 315 -2 0 -42 -42 -90 -92z"/>
<path d="M20678 3668 c-101 -106 -201 -211 -221 -233 l-36 -40 -1 218 0 217
-40 0 -40 0 0 -317 0 -316 112 119 c62 65 163 171 225 234 l113 115 0 -217 0
-218 40 0 40 0 0 315 c0 173 -2 315 -4 315 -2 0 -86 -87 -188 -192z"/>
<path d="M13825 3822 c-51 -25 -91 -68 -100 -109 -7 -33 -6 -33 32 -33 34 0
40 4 50 30 15 39 71 64 131 57 137 -15 116 -187 -24 -187 -21 0 -24 -5 -24
-35 0 -32 3 -35 38 -41 79 -14 122 -53 122 -110 0 -67 -76 -113 -167 -99 -49
7 -103 47 -103 76 0 16 -7 19 -41 19 l-42 0 6 -37 c17 -103 164 -160 304 -118
145 43 167 240 33 295 l-30 12 40 29 c48 35 60 56 60 110 0 51 -29 100 -76
130 -51 31 -155 37 -209 11z"/>
<path d="M8520 3530 l0 -300 245 0 245 0 0 -50 c0 -49 1 -50 30 -50 l30 0 0
85 0 85 -35 0 -35 0 0 265 0 265 -40 0 -40 0 0 -265 0 -265 -160 0 -160 0 0
265 0 265 -40 0 -40 0 0 -300z"/>
<path d="M9340 3530 l0 -300 175 0 175 0 0 35 0 35 -135 0 -135 0 0 110 0 110
125 0 125 0 0 35 0 35 -125 0 -125 0 0 85 0 85 135 0 135 0 0 35 0 35 -175 0
-175 0 0 -300z"/>
<path d="M9980 3530 l0 -300 40 0 40 0 0 145 0 145 165 0 165 0 0 -145 0 -145
35 0 35 0 0 300 0 300 -35 0 -34 0 -3 -117 -3 -118 -162 -3 -163 -2 0 120 0
120 -40 0 -40 0 0 -300z"/>
<path d="M10710 3795 l0 -35 75 0 75 0 0 -265 0 -265 40 0 41 0 -3 265 -3 265
78 0 77 0 0 35 0 35 -190 0 -190 0 0 -35z"/>
<path d="M11330 3530 l0 -300 40 0 40 0 0 119 0 118 83 5 c100 6 145 26 181
82 24 36 27 49 24 106 -4 78 -23 108 -89 144 -43 24 -57 26 -163 26 l-116 0 0
-300z m253 206 c64 -43 54 -152 -17 -181 -20 -8 -63 -15 -96 -15 l-60 0 0 111
0 112 73 -5 c46 -3 83 -11 100 -22z"/>
<path d="M12400 3530 l0 -300 40 0 40 0 0 119 0 119 83 3 c71 3 90 8 125 31
54 36 71 64 79 126 10 84 -26 148 -102 183 -31 15 -65 19 -152 19 l-113 0 0
-300z m262 191 c30 -34 37 -81 17 -125 -15 -33 -75 -56 -144 -56 l-55 0 0 111
0 112 77 -5 c71 -5 79 -8 105 -37z"/>
<path d="M14400 3529 l0 -301 128 3 c112 4 131 7 165 28 102 63 103 230 2 278
-41 20 -43 25 -11 43 38 20 60 70 53 119 -13 98 -69 130 -229 131 l-108 0 0
-301z m242 201 c10 -12 18 -36 18 -54 -1 -58 -40 -86 -124 -86 l-56 0 0 83 c0
46 2 86 5 88 2 3 35 2 72 -2 52 -5 71 -12 85 -29z m-1 -226 c68 -35 72 -144 6
-184 -23 -15 -50 -20 -99 -20 l-68 0 0 110 0 110 65 0 c40 0 78 -6 96 -16z"/>
<path d="M15820 3795 l0 -35 80 0 80 0 0 -265 0 -265 39 0 40 0 -2 265 -2 265
78 0 77 0 0 35 0 35 -195 0 -195 0 0 -35z"/>
<path d="M17387 3820 c-83 -25 -132 -100 -124 -188 7 -64 39 -111 96 -139 l41
-20 -34 -44 c-84 -112 -136 -185 -136 -191 0 -5 20 -8 45 -8 l44 0 83 120 c77
111 85 120 116 120 l32 0 0 -120 0 -120 40 0 40 0 0 300 0 300 -107 -1 c-60 0
-121 -5 -136 -9z m163 -171 l0 -111 -76 4 c-71 3 -78 6 -105 36 -36 40 -39 96
-8 136 29 36 52 45 127 45 l62 1 0 -111z"/>
<path d="M18360 3530 l0 -300 40 0 40 0 0 120 0 120 73 0 c137 1 217 66 217
180 0 75 -35 129 -105 161 -31 15 -65 19 -152 19 l-113 0 0 -300z m217 219
c52 -19 73 -48 73 -99 0 -38 -5 -51 -30 -75 -25 -24 -39 -29 -105 -33 l-75 -5
0 112 0 111 54 0 c30 0 67 -5 83 -11z"/>
<path d="M19000 3530 l0 -300 175 0 175 0 0 35 0 35 -135 0 -135 0 0 110 0
110 125 0 125 0 0 35 0 35 -125 0 -125 0 0 85 0 85 135 0 135 0 0 35 0 35
-175 0 -175 0 0 -300z"/>
<path d="M19640 3733 c0 -114 11 -161 46 -203 40 -47 61 -54 169 -60 l100 -5
0 -118 0 -117 38 0 37 0 0 300 0 300 -35 0 -34 0 -3 -142 -3 -143 -75 -3 c-98
-4 -114 1 -141 44 -18 30 -23 56 -27 140 l-5 104 -33 0 -34 0 0 -97z"/>
</g>
</svg>
