<svg width="68" height="68" viewBox="0 0 68 68" fill="none" xmlns="http://www.w3.org/2000/svg">
<g filter="url(#filter0_d_1_1557)">
<circle opacity="0.2" cx="34" cy="30" r="30" fill="#E42125"/>
<path d="M41.5 22.5H26.5C26.1022 22.5 25.7206 22.658 25.4393 22.9393C25.158 23.2206 25 23.6022 25 24C25 24.3978 25.158 24.7794 25.4393 25.0607C25.7206 25.342 26.1022 25.5 26.5 25.5H41.5C41.8978 25.5 42.2794 25.342 42.5607 25.0607C42.842 24.7794 43 24.3978 43 24C43 23.6022 42.842 23.2206 42.5607 22.9393C42.2794 22.658 41.8978 22.5 41.5 22.5ZM41.5 28.5H26.5C26.1022 28.5 25.7206 28.658 25.4393 28.9393C25.158 29.2206 25 29.6022 25 30C25 30.3978 25.158 30.7794 25.4393 31.0607C25.7206 31.342 26.1022 31.5 26.5 31.5H41.5C41.8978 31.5 42.2794 31.342 42.5607 31.0607C42.842 30.7794 43 30.3978 43 30C43 29.6022 42.842 29.2206 42.5607 28.9393C42.2794 28.658 41.8978 28.5 41.5 28.5ZM44.5 15H23.5C22.3065 15 21.1619 15.4741 20.318 16.318C19.4741 17.1619 19 18.3065 19 19.5V34.5C19 35.6935 19.4741 36.8381 20.318 37.682C21.1619 38.5259 22.3065 39 23.5 39H40.885L46.435 44.565C46.5752 44.704 46.7414 44.814 46.9241 44.8887C47.1069 44.9633 47.3026 45.0011 47.5 45C47.6968 45.0051 47.892 44.964 48.07 44.88C48.3439 44.7675 48.5784 44.5764 48.7439 44.3308C48.9094 44.0852 48.9985 43.7961 49 43.5V19.5C49 18.3065 48.5259 17.1619 47.682 16.318C46.8381 15.4741 45.6935 15 44.5 15ZM46 39.885L42.565 36.435C42.4248 36.296 42.2586 36.186 42.0759 36.1113C41.8931 36.0367 41.6974 35.9989 41.5 36H23.5C23.1022 36 22.7206 35.842 22.4393 35.5607C22.158 35.2794 22 34.8978 22 34.5V19.5C22 19.1022 22.158 18.7206 22.4393 18.4393C22.7206 18.158 23.1022 18 23.5 18H44.5C44.8978 18 45.2794 18.158 45.5607 18.4393C45.842 18.7206 46 19.1022 46 19.5V39.885Z" fill="#E42125"/>
</g>
<defs>
<filter id="filter0_d_1_1557" x="0" y="0" width="68" height="68" filterUnits="userSpaceOnUse" color-interpolation-filters="sRGB">
<feFlood flood-opacity="0" result="BackgroundImageFix"/>
<feColorMatrix in="SourceAlpha" type="matrix" values="0 0 0 0 0 0 0 0 0 0 0 0 0 0 0 0 0 0 127 0" result="hardAlpha"/>
<feOffset dy="4"/>
<feGaussianBlur stdDeviation="2"/>
<feComposite in2="hardAlpha" operator="out"/>
<feColorMatrix type="matrix" values="0 0 0 0 0 0 0 0 0 0 0 0 0 0 0 0 0 0 0.25 0"/>
<feBlend mode="normal" in2="BackgroundImageFix" result="effect1_dropShadow_1_1557"/>
<feBlend mode="normal" in="SourceGraphic" in2="effect1_dropShadow_1_1557" result="shape"/>
</filter>
</defs>
</svg>
