<svg width="65" height="28" viewBox="0 0 65 28" fill="none" xmlns="http://www.w3.org/2000/svg">
<rect width="65" height="28" rx="14" fill="#E42125"/>
<path d="M27.67 20.252C26.098 20.252 24.862 19.658 23.962 18.47C23.074 17.27 22.63 15.68 22.63 13.7C22.63 11.72 23.074 10.136 23.962 8.948C24.862 7.748 26.098 7.148 27.67 7.148C29.254 7.148 30.49 7.748 31.378 8.948C32.266 10.136 32.71 11.72 32.71 13.7C32.71 15.68 32.266 17.27 31.378 18.47C30.49 19.658 29.254 20.252 27.67 20.252ZM25.762 16.778C26.194 17.474 26.83 17.822 27.67 17.822C28.51 17.822 29.146 17.468 29.578 16.76C30.022 16.052 30.244 15.032 30.244 13.7C30.244 12.356 30.022 11.33 29.578 10.622C29.146 9.914 28.51 9.56 27.67 9.56C26.83 9.56 26.194 9.914 25.762 10.622C25.33 11.33 25.114 12.356 25.114 13.7C25.114 15.044 25.33 16.07 25.762 16.778ZM39.3621 12.512C40.2141 12.764 40.9041 13.208 41.4321 13.844C41.9721 14.468 42.2421 15.224 42.2421 16.112C42.2421 17.408 41.8041 18.422 40.9281 19.154C40.0641 19.886 39.0021 20.252 37.7421 20.252C36.7581 20.252 35.8761 20.03 35.0961 19.586C34.3281 19.13 33.7701 18.464 33.4221 17.588L35.5461 16.364C35.8581 17.336 36.5901 17.822 37.7421 17.822C38.3781 17.822 38.8701 17.672 39.2181 17.372C39.5781 17.06 39.7581 16.64 39.7581 16.112C39.7581 15.596 39.5781 15.182 39.2181 14.87C38.8701 14.558 38.3781 14.402 37.7421 14.402H37.2021L36.2481 12.962L38.7321 9.722H33.8001V7.4H41.7201V9.452L39.3621 12.512Z" fill="white"/>
</svg>
