<svg width="63" height="28" viewBox="0 0 63 28" fill="green" xmlns="http://www.w3.org/2000/svg">
<g clip-path="url(#clip0_1_2)">
<path d="M49 0H14C6.26801 0 0 6.26801 0 14C0 21.732 6.26801 28 14 28H49C56.732 28 63 21.732 63 14C63 6.26801 56.732 0 49 0Z" fill="#2E90D1"/>
<path d="M26.54 20.252C24.968 20.252 23.732 19.658 22.832 18.47C21.944 17.27 21.5 15.68 21.5 13.7C21.5 11.72 21.944 10.136 22.832 8.948C23.732 7.748 24.968 7.148 26.54 7.148C28.124 7.148 29.36 7.748 30.248 8.948C31.136 10.136 31.58 11.72 31.58 13.7C31.58 15.68 31.136 17.27 30.248 18.47C29.36 19.658 28.124 20.252 26.54 20.252ZM24.632 16.778C25.064 17.474 25.7 17.822 26.54 17.822C27.38 17.822 28.016 17.468 28.448 16.76C28.892 16.052 29.114 15.032 29.114 13.7C29.114 12.356 28.892 11.33 28.448 10.622C28.016 9.914 27.38 9.56 26.54 9.56C25.7 9.56 25.064 9.914 24.632 10.622C24.2 11.33 23.984 12.356 23.984 13.7C23.984 15.044 24.2 16.07 24.632 16.778ZM41 10.622V14.5V20.252H38.5V15.5H34.5H32.5V7.5H34.5V13H38.5V7.5H41V10.622Z" fill="white"/>
</g>
<defs>
<clipPath id="clip0_1_2">
<rect width="63" height="28" fill="white"/>
</clipPath>
</defs>
</svg>
